<svg width="884" height="328" viewBox="0 0 8840 3280" stroke="black" stroke-width="60" fill="none" xmlns="http://www.w3.org/2000/svg">
  <g>
    <path style="transform-box: fill-box; transform-origin: 50% 50%;" d="M 2607.348 665.536 C 2605.081 662.856 2550.295 605.207 2547.928 602.633 C 1573.354 -457.051 115.148 463.725 134.16 1502.792 C 148.754 2300.373 997.902 3393.617 2210.368 2779" transform="matrix(0.999885, -0.015168, 0.015168, 0.999885, 0, 0)"/>
    <path d="M 1852.785 2443.794 C 1457.124 2605.786 994.302 2471.588 778.328 2203.432 C 399.627 1733.232 501.794 1218.05 793.535 878.63 C 1062.338 565.897 1570.027 440.055 1836.021 436.694 C 2416.425 429.361 2778.412 702.204 3024.435 1137.853 C 3273.536 1578.953 3292.084 2167.191 2953.556 2701.106"/>
    <path style="transform-box: fill-box; transform-origin: 50% 50%;" d="M 2583.788 2423.604 C 3095.355 1693.516 2496.802 969.501 2062.648 872.329 C 1302.231 702.133 560.892 1422.908 847.288 2268.646" transform="matrix(0.999885, -0.015168, 0.015168, 0.999885, 0.000002, 0.000001)"/>
    <path style="transform-box: fill-box; transform-origin: 50% 50%;" d="M 2599.865 2409.39 C 2509.332 2477.854 2269.517 2003.134 2227.467 1963.437 C 2185.417 1923.74 1843.027 2104.114 1809.507 2137.245" transform="matrix(0.999885, -0.015168, 0.015168, 0.999885, 0.000002, -0.000001)"/>
    <path style="transform-origin: -608.81px 1603.4px;" d="M 2228.85 2018.333 C 2078.331 1860.667 1930.973 1695.928 1886.886 1705.377 C 1771.709 1730.062 1557.124 1826.373 1472.141 1891.001" transform="matrix(0.999885, -0.015168, 0.015168, 0.999885, 0, 0)"/>
      <path style="transform-origin: 959.05px 1386.31px;" d="M 1491.182 1851.133 C 1491.484 1853.703 1472.372 1861.985 1472.692 1864.525 C 1510.402 2164.195 1724.327 2390.612 2214.625 2780.24 C 2218.971 2783.694 2173.289 2797.99 2177.459 2801.751" transform="matrix(0.999885, -0.015168, 0.015168, 0.999885, 0.000002, -0.000001)"/>
    <path d="M 1497.161 1859.39 C 1736.194 2066.207 1828.257 2114.055 1839.032 2150.696 C 1845.059 2171.192 1879.947 2370.41 2125.407 2681.89" transform="matrix(0.99988502264, -0.015168000944, 0.015168000944, 0.99988502264, -47.037755982874, 22.99352015815)"/>
    <path d="M 3031.623 2547.545 C 3031.623 2547.545 3217.578 2684.438 3222.164 2748.475 C 3232.621 2894.497 3243.916 2904.855 3218.267 3165.245" transform="matrix(0.99988502264, -0.015168000944, 0.015168000944, 0.99988502264, -24.57474628882, 47.391358639224)"/>
    <path style="transform-box: fill-box; transform-origin: 50% 50%;" d="M 2966.99 2679.057 C 2884.685 2778.546 3194.082 2718.795 3233.979 2753.928 C 3236.709 2756.332 3240.226 2767.94 3240.221 2771.314" transform="matrix(0.999885, -0.015168, 0.015168, 0.999885, 0.000001, -0.000002)"/>
    <path style="transform-origin: 1472.71px 2735.53px;" d="M 764.671 2688.713 C 1101.108 3318.269 2114.286 3342.351 2536.684 3022.515 C 2598.296 2975.863 2839.081 3297.131 3241.247 3181.291" transform="matrix(0.999885, -0.015168, 0.015168, 0.999885, 0.000003, -0.000001)"/>
    <path style="transform-origin: 3075.97px -445.085px;" d="M 2392.746 1054.763 C 2543.087 1196.171 2471.037 1908.34 2289.656 2094.197" transform="matrix(0.999885, -0.015168, 0.015168, 0.999885, 0, 0.000002)"/>
  </g>
  <g>
    <path style="transform-origin: 3654.35px 1929.03px;" d="M 3670.768 2694.05 L 3708.081 146.697 L 5096.484 173.574 L 5520.037 629.299" transform="matrix(0.999885, -0.015168, 0.015168, 0.999885, 0.000006, -0.000009)"/>
    <path style="transform-origin: 4184.26px 1118.82px;" d="M 4984.899 2276.327 L 4115.483 2254.228 L 4145.161 596.552 L 5514.961 623.845" transform="matrix(0.999885, -0.015168, 0.015168, 0.999885, 0.000001, -0.000008)"/>
    <path style="transform-origin: 4775.96px 1360.42px;" d="M 4572.189 1671.038 L 4578.12 1048.136 L 5503.984 1065.78 L 5508.191 606.501" transform="matrix(0.999885, -0.015168, 0.015168, 0.999885, 0.000002, -0.000003)"/>
    <path style="stroke-linejoin: bevel; transform-origin: 4293.7px 1714.57px;" d="M 4567.49 1668.314 L 5447.34 1686.328 L 4990.174 1211.529 L 4582.634 1206.052" transform="matrix(0.999885, -0.015168, 0.015168, 0.999885, 0.000003, 0.000002)"/>
    <path style="transform-origin: 5261.91px 1900.65px;" d="M 4611.909 2253.359 L 4613.692 2110.593 L 5442.966 2127.981 L 5448.049 1665.192" transform="matrix(0.999885, -0.015168, 0.015168, 0.999885, 0, -0.000005)"/>
    <path style="stroke-linejoin: bevel; transform-origin: 5478.98px 2516.63px;" d="M 4985.69 2678.603 L 5453.276 3140.019 L 5467.027 2733.29 L 4999.411 2253.903" transform="matrix(0.999885, -0.015168, 0.015168, 0.999885, 0.000005, -0.000009)"/>
    <path style="stroke-linejoin: bevel;" d="M 5465.343 3142.208 L 4120.731 3113.714 L 3678.815 2662.727 L 4987.227 2682.856 L 4998.97 2268.279" transform="matrix(0.99988502264, -0.015168000944, 0.015168000944, 0.99988502264, -39.269991274574, 80.476986305927)"/>
  </g>
  <g>
    <path style="transform-origin: 4219.8px -791.558px;" d="M 6145.856 239.136 C 6145.856 239.136 7251.421 250.869 7329.595 269.259 C 8574.568 562.139 8525.736 3025.629 7050.167 2805.74 C 7044.96 2804.964 7071.779 1084.99 7071.779 1084.99" transform="matrix(0.999885, -0.015168, 0.015168, 0.999885, 0, 0.000003)"/>
    <path style="transform-origin: 3707.64px -2042.97px;" d="M 7049.353 1107.476 C 7049.353 1107.476 6595.34 664.494 6610.411 664.722 C 6717.174 666.339 7175.214 678.48 7243.962 693.518 C 7702.477 793.815 8071.719 2354.903 7032.903 2387.33" transform="matrix(0.999885, -0.015168, 0.015168, 0.999885, 0, 0.000001)"/>
    <path style="transform-origin: 4333.41px -851.262px;" d="M 7065.681 1093.979 C 7108.097 1103.087 7565.033 1020.188 7678.722 1290.431" transform="matrix(0.999885, -0.015168, 0.015168, 0.999885, 0, -0.000003)"/>
    <path style="transform-origin: 5237.44px -2013.27px;" d="M 6127.66 213.917 L 6087.722 2744.569 L 6545.948 3199.329" transform="matrix(0.999885, -0.015168, 0.015168, 0.999885, -0.000005, -0.00001)"/>
    <path d="M 6641.657 610.448 L 6628.044 3175.608 L 7611.181 3136.463 C 7686.387 3132.203 8418.948 2936.211 8587.145 2000.882 C 8754.382 1070.888 7950.178 621.636 7794.152 450.231"/>
  </g>
</svg>
